<?xml version="1.0" standalone="no"?>
<!DOCTYPE svg PUBLIC "-//W3C//DTD SVG 20010904//EN"
 "http://www.w3.org/TR/2001/REC-SVG-20010904/DTD/svg10.dtd">
<svg version="1.0" xmlns="http://www.w3.org/2000/svg"
 width="700.000000pt" height="700.000000pt" viewBox="0 0 700.000000 700.000000"
 preserveAspectRatio="xMidYMid meet">
<metadata>
Created by potrace 1.11, written by Peter Selinger 2001-2013
</metadata>
<g transform="translate(0.000000,700.000000) scale(0.100000,-0.100000)"
fill="#000000" stroke="none">
<path d="M5580 6984 c-95 -18 -178 -47 -267 -93 -118 -61 -183 -74 -358 -75
-131 0 -349 10 -396 19 -9 2 -58 6 -110 10 -52 4 -112 8 -134 11 -245 24 -772
24 -901 0 -10 -2 -44 -7 -75 -10 -31 -4 -67 -9 -80 -11 -13 -3 -40 -7 -59 -10
-82 -10 -345 -77 -471 -119 -231 -77 -482 -193 -682 -317 -48 -30 -96 -58
-105 -64 -53 -31 -321 -230 -367 -272 -11 -10 -47 -40 -80 -68 -163 -135 -487
-478 -660 -701 -73 -94 -290 -424 -279 -424 3 0 -3 -12 -14 -27 -29 -40 -154
-303 -195 -408 -94 -243 -174 -569 -201 -820 -27 -250 -27 -702 -1 -935 2 -19
6 -75 10 -123 4 -49 8 -96 10 -105 8 -42 19 -259 19 -372 1 -207 -7 -245 -88
-411 -65 -135 -87 -227 -91 -384 -5 -253 58 -461 210 -690 68 -102 147 -191
260 -290 30 -27 219 -155 228 -155 3 0 39 -16 80 -35 158 -74 307 -105 487
-101 164 4 275 32 418 106 118 60 182 74 362 74 142 0 329 -9 390 -19 27 -5
129 -13 230 -20 36 -3 108 -8 160 -12 126 -9 489 -9 619 0 340 24 702 105 996
224 211 85 472 223 655 348 90 62 232 164 240 174 3 3 28 24 55 46 28 22 55
44 61 50 6 5 36 30 65 55 60 49 349 336 419 415 92 103 139 161 253 310 211
276 411 659 522 997 35 108 88 319 99 392 4 21 8 41 10 45 2 3 7 30 10 60 4
29 11 83 16 120 30 213 33 676 6 951 -2 25 -8 83 -11 130 -8 98 -10 123 -21
245 -5 50 -8 162 -8 250 1 189 11 240 83 388 79 164 101 266 96 452 -2 72 -6
139 -8 150 -3 11 -8 34 -12 50 -82 361 -352 704 -695 881 -96 50 -217 94 -300
109 -14 2 -46 9 -72 13 -69 13 -252 11 -328 -4z m314 -663 c130 -46 270 -159
357 -287 27 -40 49 -76 49 -80 0 -3 6 -20 14 -37 52 -113 45 -196 -27 -347
-54 -112 -89 -219 -103 -310 -3 -25 -10 -70 -14 -100 -9 -55 -5 -514 4 -560 3
-14 8 -65 11 -115 4 -49 8 -106 10 -125 21 -251 27 -646 12 -827 -31 -379
-150 -751 -353 -1104 -79 -138 -231 -350 -336 -470 -13 -14 -40 -46 -61 -70
-147 -168 -395 -398 -567 -527 -52 -39 -106 -80 -120 -90 -49 -38 -247 -155
-350 -207 -221 -112 -464 -194 -710 -239 -179 -33 -284 -41 -555 -41 -232 0
-376 7 -625 29 -187 17 -269 21 -475 21 -179 -1 -249 -5 -315 -18 -121 -25
-231 -63 -334 -114 -113 -57 -184 -63 -289 -28 -104 36 -173 81 -272 180 -100
101 -153 188 -181 295 -24 93 -14 149 50 282 104 219 126 347 121 703 -2 132
-6 249 -9 261 -2 11 -7 65 -11 120 -4 54 -9 117 -11 139 -14 160 -19 281 -19
490 0 268 7 371 35 535 5 30 11 67 14 82 18 109 93 350 151 488 181 433 531
890 960 1255 39 33 72 62 75 65 3 3 32 26 65 51 320 245 639 409 980 503 50
14 101 27 115 29 309 58 356 62 685 62 243 0 330 -5 605 -30 174 -16 268 -20
470 -20 308 1 449 29 652 131 40 20 84 40 98 44 42 13 142 3 204 -19z"/>
<path d="M3625 5732 c-11 -2 -56 -13 -100 -23 -44 -11 -88 -22 -98 -24 -100
-22 -373 -145 -537 -243 -131 -78 -391 -259 -420 -291 -3 -3 -32 -28 -65 -56
-132 -109 -337 -310 -445 -436 -35 -41 -66 -76 -70 -79 -16 -13 -175 -227
-237 -320 -189 -284 -323 -582 -378 -845 -4 -16 -8 -68 -10 -115 -4 -75 -1
-91 22 -138 82 -171 320 -204 447 -62 35 40 63 101 71 160 8 55 43 193 60 235
5 11 16 41 26 67 72 188 279 508 460 713 59 67 290 299 359 361 332 297 752
525 1029 559 182 22 293 194 236 365 -23 70 -95 142 -163 164 -45 15 -133 19
-187 8z"/>
</g>
</svg>
